# xmcd
#
# Track frame offsets: 
#        150
#        14223
#        26091
#        42681
#        55662
#        67588
#        79322
#        92933
#        103553
#        118568
#
# Disc length: 1747 seconds
#
# Revision: 0
# Processed by: cddbd v1.5.2PL0 Copyright (c) Steve Scherf et al.
# Submitted via: ExactAudioCopy v1.0b4
#
DISCID=8306d10a
DTITLE=Glen Campbell - Wichita Lineman
DYEAR=1900
DGENRE=Country
TTITLE0=Wichita Lineman
TTITLE1=(Sittin' On) The Dock of the Bay
TTITLE2=If You Go Away
TTITLE3=Words
TTITLE4=Fate of Man
TTITLE5=Dreams of the Everyday Housewife
TTITLE6=The Straight Life
TTITLE7=Reason to Believe
TTITLE8=You Better Sit Down Kids
TTITLE9=That's Not Home
EXTD=
EXTT0=
EXTT1=
EXTT2=
EXTT3=
EXTT4=
EXTT5=
EXTT6=
EXTT7=
EXTT8=
EXTT9=
PLAYORDER=
